<?xml version="1.0" encoding="utf-8"?>
<!-- Generator: Adobe Illustrator 22.1.0, SVG Export Plug-In . SVG Version: 6.00 Build 0)  -->
<svg version="1.1" id="Layer_1" xmlns="http://www.w3.org/2000/svg" xmlns:xlink="http://www.w3.org/1999/xlink" x="0px" y="0px"
	 width="112px" height="30px" viewBox="0 0 112 30" style="enable-background:new 0 0 112 30;" xml:space="preserve">
<style type="text/css">
	.st0{fill:#FFFFFF;}
</style>
<path class="st0" d="M99.5,12.2c0.4,0.8,0.7,1.7,0.7,2.8c0,1-0.2,2-0.7,2.8c-0.4,0.8-1,1.4-1.8,1.9c-0.8,0.4-1.6,0.7-2.5,0.7
	c-0.9,0-1.8-0.2-2.5-0.7c-0.8-0.4-1.4-1.1-1.8-1.9C90.4,17,90.2,16,90.2,15c0-1,0.2-2,0.7-2.8c0.4-0.8,1-1.4,1.8-1.9
	c0.8-0.4,1.6-0.7,2.5-0.7c0.9,0,1.8,0.2,2.5,0.7C98.5,10.8,99.1,11.5,99.5,12.2z M112,0v30H0V0H112z M26.4,5.8h-5.2v6.9H14V5.8H8.8
	v18.4H14V17h7.1v7.2h5.2V5.8z M35.3,5.8H30v18.4h5.2V5.8z M56.5,5.8h-5.1v9.8l-8.1-9.8H39v18.4h5.1v-9.8l8.1,9.8h4.3V5.8z M75,5.8
	H58.5v4.1h5.7v14.3h5.2V9.9H75V5.8z M82.2,5.8h-5.2v18.4h5.2V5.8z M105.4,15c0-1.8-0.4-3.5-1.3-4.9c-0.9-1.5-2.1-2.6-3.7-3.4
	c-1.6-0.8-3.3-1.2-5.3-1.2c-2,0-3.7,0.4-5.3,1.2c-1.6,0.8-2.8,2-3.7,3.4c-0.9,1.5-1.3,3.1-1.3,4.9c0,1.8,0.4,3.5,1.3,4.9
	c0.9,1.5,2.1,2.6,3.7,3.4c1.6,0.8,3.3,1.2,5.3,1.2c2,0,3.7-0.4,5.3-1.2c1.6-0.8,2.8-2,3.7-3.4C105,18.5,105.4,16.8,105.4,15z"/>
</svg>
